HIERARCHY
ROOT hip
{
	OFFSET 0.000000 0.000000 0.000000 
	CHANNELS 6 Xposition Yposition Zposition Xrotation Zrotation Yrotation
	JOINT abdomen
	{
		OFFSET 0.000000 3.402643 0.000000 
		CHANNELS 3 Xrotation Zrotation Yrotation
		JOINT chest
		{
			OFFSET 0.000000 8.438565 -0.680529 
			CHANNELS 3 Xrotation Zrotation Yrotation
			JOINT neck
			{
				OFFSET 0.000000 10.207942 -0.272212 
				CHANNELS 3 Xrotation Zrotation Yrotation
				JOINT head
				{
					OFFSET 0.000000 3.130431 0.000000 
					CHANNELS 3 Xrotation Zrotation Yrotation
					End Site
					{
						OFFSET 0.000000 3.130435 0.000000 
					}
				}
			}
			JOINT lCollar
			{
				OFFSET 3.470700 6.669187 -0.816635 
				CHANNELS 3 Yrotation Zrotation Xrotation
				JOINT lShldr
				{
					OFFSET 3.198488 0.000000 0.000000 
					CHANNELS 3 Zrotation Yrotation Xrotation
					JOINT lForeArm
					{
						OFFSET 10.139888 0.000000 0.000000 
						CHANNELS 3 Yrotation Zrotation Xrotation
						JOINT lHand
						{
							OFFSET 8.370511 0.000000 0.000000 
							CHANNELS 3 Zrotation Yrotation Xrotation
							End Site
							{
								OFFSET 4.083176 0.000000 0.000000 
							}
						}
					}
				}
			}
			JOINT rCollar
			{
				OFFSET -3.470700 6.669187 -0.816635 
				CHANNELS 3 Yrotation Zrotation Xrotation
				JOINT rShldr
				{
					OFFSET -3.198488 0.000000 0.000000 
					CHANNELS 3 Zrotation Yrotation Xrotation
					JOINT rForeArm
					{
						OFFSET -10.139888 0.000000 0.000000 
						CHANNELS 3 Yrotation Zrotation Xrotation
						JOINT rHand
						{
							OFFSET -8.370511 0.000000 0.000000 
							CHANNELS 3 Zrotation Yrotation Xrotation
							End Site
							{
								OFFSET -4.083176 0.000000 0.000000 
							}
						}
					}
				}
			}
		}
	}
	JOINT lThigh
	{
		OFFSET 5.308129 -1.633274 1.361059 
		CHANNELS 3 Xrotation Zrotation Yrotation
		JOINT lShin
		{
			OFFSET -2.041588 -20.007561 0.000000 
			CHANNELS 3 Xrotation Zrotation Yrotation
			JOINT lFoot
			{
				OFFSET 0.000000 -19.190928 -1.224953 
				CHANNELS 3 Xrotation Yrotation Zrotation
				End Site
				{
					OFFSET 0.000000 -2.449906 4.627600 
				}
			}
		}
	}
	JOINT rThigh
	{
		OFFSET -5.308129 -1.633274 1.361059 
		CHANNELS 3 Xrotation Zrotation Yrotation
		JOINT rShin
		{
			OFFSET 2.041588 -20.007561 0.000000 
			CHANNELS 3 Xrotation Zrotation Yrotation
			JOINT rFoot
			{
				OFFSET 0.000000 -19.190928 -1.224953 
				CHANNELS 3 Xrotation Yrotation Zrotation
				End Site
				{
					OFFSET 0.000000 -2.449906 4.627600 
				}
			}
		}
	}
}
MOTION
Frames: 8
Frame Time: 0.016667
0.236402 45.434814 -2.253269 0.714303 3.603240 -9.065910 -20.758400 1.437310 -3.761220 21.272301 5.019140 -1.460210 17.439600 -1.661590 5.573800 13.998900 6.231950 3.040730 2.000000 -2.000000 0.000000 113.533997 -131.399002 5.261270 108.710999 -0.167856 0.148545 0.046149 -0.022000 -144.802994 -2.000000 2.000000 0.000000 81.368500 -5.058730 159.128998 -34.424198 0.327623 0.077291 -0.054653 0.000719 -133.688995 -0.463443 -7.539673 -1.293847 11.624734 2.796395 0.952454 -8.370433 3.638080 0.941634 -9.370621 -2.858738 8.598269 28.861923 -3.238839 -2.049842 -16.746138 -1.992399 -0.546684 
0.239286 45.435196 -2.244732 0.724096 3.612990 -9.084700 -20.768499 1.464540 -3.772030 21.272301 5.038670 -1.459960 17.074200 -1.726280 5.639650 13.899700 6.185900 3.080390 2.000000 -2.000000 0.000000 114.418999 -130.518005 4.247720 108.331001 -0.168780 0.148854 0.046090 -0.021566 -144.645996 -2.000000 2.000000 0.000000 81.329597 -4.951680 159.294998 -34.648800 0.327319 0.077733 -0.054647 0.000828 -133.727997 -0.365674 -7.541477 -1.346448 11.411304 2.759797 0.923049 -8.244212 3.701879 0.966674 -9.385128 -2.879424 8.598362 28.862385 -3.234305 -2.048743 -16.735289 -2.004469 -0.542156 
0.242170 45.435711 -2.236206 0.733888 3.622750 -9.103490 -20.788300 1.491610 -3.783280 21.262501 5.067980 -1.460460 16.699100 -1.791240 5.706530 13.790700 6.140010 3.119170 2.000000 -2.000000 0.000000 115.343002 -129.645996 3.185270 107.959000 -0.169681 0.149150 0.046028 -0.021105 -144.479996 -2.000000 2.000000 0.000000 81.300400 -4.844610 159.451004 -34.883202 0.327000 0.078192 -0.054643 0.000910 -133.757996 -0.397641 -7.577641 -1.373778 11.464525 2.790975 0.934422 -8.246474 3.752396 0.957858 -9.468144 -2.874214 8.603532 28.939737 -3.246448 -2.050810 -16.725569 -2.003550 -0.541441 
0.239997 45.434937 -2.226084 0.724103 3.622760 -9.133410 -20.740299 1.520960 -3.760590 21.341000 5.087420 -1.443520 16.383101 -1.691180 5.785890 13.712700 6.170490 3.174310 2.000000 -2.000000 0.000000 116.402000 -128.675995 1.993910 107.587997 -0.170585 0.149439 0.046093 -0.021593 -144.656006 -2.000000 2.000000 0.000000 81.271103 -4.688620 159.569000 -35.039398 0.326786 0.078497 -0.054638 0.000992 -133.787003 -0.239699 -7.533339 -1.392734 11.144199 2.704308 0.942124 -8.118653 3.728588 1.006542 -9.379662 -2.896258 8.589004 28.842133 -3.236369 -2.039724 -16.703909 -1.930984 -0.522755 
0.237821 45.434162 -2.215963 0.724103 3.622760 -9.152940 -20.702101 1.550160 -3.738300 21.419500 5.116610 -1.426390 16.057199 -1.581400 5.866680 13.634900 6.210590 3.221230 2.000000 -2.000000 0.000000 117.521004 -127.707001 0.736387 107.208000 -0.171514 0.149731 0.046160 -0.022081 -144.832001 -2.000000 2.000000 0.000000 81.251701 -4.532630 159.686005 -35.195702 0.326572 0.078802 -0.054635 0.001047 -133.807007 -0.338876 -7.581946 -1.343083 11.372698 2.795039 0.926460 -8.248157 3.752507 0.947128 -9.374822 -2.903548 8.559905 28.851377 -3.238178 -2.030351 -16.710224 -1.872970 -0.501727 
0.235999 45.434937 -2.214153 0.724096 3.612990 -9.143300 -20.673100 1.578070 -3.747320 21.439100 5.136110 -1.424340 15.685500 -1.577350 5.877070 13.536100 6.183680 3.235140 2.000000 -2.000000 0.000000 118.639000 -126.853996 -0.591757 106.875999 -0.172326 0.149979 0.046202 -0.022379 -144.938995 -2.000000 2.000000 0.000000 81.251801 -4.357330 159.901993 -35.351898 0.326356 0.079107 -0.054632 0.001101 -133.826004 -0.308991 -7.552991 -1.355189 11.326872 2.776755 0.925480 -8.237117 3.742394 0.974318 -9.361319 -2.886181 8.579834 28.842707 -3.230742 -2.038362 -16.727333 -1.895034 -0.514115 
0.234177 45.435711 -2.212334 0.724096 3.612990 -9.133530 -20.644199 1.600270 -3.743720 21.468500 5.165370 -1.421250 15.313800 -1.573350 5.887450 13.437500 6.166370 3.250740 2.000000 -2.000000 0.000000 119.816002 -126.011002 -1.986280 106.542999 -0.173139 0.150224 0.046244 -0.022677 -145.046997 -2.000000 2.000000 0.000000 81.242203 -4.182060 160.126999 -35.508202 0.326140 0.079411 -0.054629 0.001156 -133.845993 -0.291799 -7.533369 -1.366463 11.290048 2.761068 0.915307 -8.241188 3.756109 0.980565 -9.430803 -2.856370 8.585296 28.920181 -3.241682 -2.040167 -16.736048 -1.908349 -0.510692 
0.231437 45.436611 -2.210682 0.763244 3.622730 -9.140700 -20.664000 1.612490 -3.738910 21.439100 5.175170 -1.413980 14.902000 -1.492920 5.926930 13.310000 6.178520 3.286440 2.000000 -2.000000 0.000000 120.799004 -125.315002 -3.129070 106.299004 -0.173737 0.150400 0.046271 -0.022866 -145.115005 -2.000000 2.000000 0.000000 81.242401 -4.065590 160.449005 -35.566799 0.326059 0.079524 -0.054625 0.001238 -133.875000 -0.329272 -7.542091 -1.361614 11.289557 2.766550 0.935317 -8.237321 3.741972 0.974117 -9.382065 -2.880813 8.568782 28.803387 -3.231024 -2.038876 -16.705853 -1.914442 -0.513510 
